<mxfile host="app.diagrams.net" modified="2023-08-09T08:31:08.735Z" agent="Mozilla/5.0 (Macintosh; Intel Mac OS X 10_15_7) AppleWebKit/537.36 (KHTML, like Gecko) Chrome/115.0.0.0 Safari/537.36" etag="zZz03I8gwJ1nofdHE3gy" version="21.6.6" type="github">
  <diagram name="第 1 页" id="ap9W5hRirbO13enwr4ND">
    <mxGraphModel dx="1590" dy="843" grid="1" gridSize="10" guides="1" tooltips="1" connect="1" arrows="1" fold="1" page="1" pageScale="1" pageWidth="827" pageHeight="1169" math="0" shadow="0">
      <root>
        <mxCell id="0" />
        <mxCell id="1" parent="0" />
        <mxCell id="7O1tig4I5gMi6tVbBRt3-1" style="edgeStyle=orthogonalEdgeStyle;rounded=0;orthogonalLoop=1;jettySize=auto;html=1;entryX=0.5;entryY=0;entryDx=0;entryDy=0;" edge="1" parent="1" source="7O1tig4I5gMi6tVbBRt3-2" target="7O1tig4I5gMi6tVbBRt3-4">
          <mxGeometry relative="1" as="geometry" />
        </mxCell>
        <mxCell id="7O1tig4I5gMi6tVbBRt3-2" value="&lt;font style=&quot;font-size: 16px;&quot;&gt;开始&lt;/font&gt;" style="rounded=1;whiteSpace=wrap;html=1;" vertex="1" parent="1">
          <mxGeometry x="354" y="120" width="120" height="60" as="geometry" />
        </mxCell>
        <mxCell id="7O1tig4I5gMi6tVbBRt3-3" style="edgeStyle=orthogonalEdgeStyle;rounded=0;orthogonalLoop=1;jettySize=auto;html=1;entryX=0.5;entryY=0;entryDx=0;entryDy=0;" edge="1" parent="1" source="7O1tig4I5gMi6tVbBRt3-4" target="7O1tig4I5gMi6tVbBRt3-6">
          <mxGeometry relative="1" as="geometry" />
        </mxCell>
        <mxCell id="7O1tig4I5gMi6tVbBRt3-4" value="&lt;font style=&quot;font-size: 16px;&quot;&gt;拉取kafka消息&lt;/font&gt;" style="rounded=0;whiteSpace=wrap;html=1;" vertex="1" parent="1">
          <mxGeometry x="354" y="220" width="120" height="60" as="geometry" />
        </mxCell>
        <mxCell id="7O1tig4I5gMi6tVbBRt3-5" style="edgeStyle=orthogonalEdgeStyle;rounded=0;orthogonalLoop=1;jettySize=auto;html=1;entryX=0.5;entryY=0;entryDx=0;entryDy=0;" edge="1" parent="1" source="7O1tig4I5gMi6tVbBRt3-6" target="7O1tig4I5gMi6tVbBRt3-24">
          <mxGeometry relative="1" as="geometry">
            <mxPoint x="415" y="410" as="targetPoint" />
          </mxGeometry>
        </mxCell>
        <mxCell id="7O1tig4I5gMi6tVbBRt3-6" value="&lt;font style=&quot;font-size: 16px;&quot;&gt;消息过滤&lt;/font&gt;" style="rounded=0;whiteSpace=wrap;html=1;" vertex="1" parent="1">
          <mxGeometry x="354" y="320" width="120" height="60" as="geometry" />
        </mxCell>
        <mxCell id="7O1tig4I5gMi6tVbBRt3-7" style="edgeStyle=orthogonalEdgeStyle;rounded=0;orthogonalLoop=1;jettySize=auto;html=1;entryX=0.5;entryY=0;entryDx=0;entryDy=0;exitX=0.5;exitY=1;exitDx=0;exitDy=0;" edge="1" parent="1" source="7O1tig4I5gMi6tVbBRt3-24" target="7O1tig4I5gMi6tVbBRt3-11">
          <mxGeometry relative="1" as="geometry">
            <mxPoint x="415" y="490" as="sourcePoint" />
          </mxGeometry>
        </mxCell>
        <mxCell id="7O1tig4I5gMi6tVbBRt3-10" style="edgeStyle=orthogonalEdgeStyle;rounded=0;orthogonalLoop=1;jettySize=auto;html=1;entryX=0.5;entryY=0;entryDx=0;entryDy=0;" edge="1" parent="1" source="7O1tig4I5gMi6tVbBRt3-11" target="7O1tig4I5gMi6tVbBRt3-14">
          <mxGeometry relative="1" as="geometry" />
        </mxCell>
        <mxCell id="7O1tig4I5gMi6tVbBRt3-11" value="&lt;font style=&quot;font-size: 16px;&quot;&gt;与内存中版本对比&lt;/font&gt;" style="rounded=0;whiteSpace=wrap;html=1;" vertex="1" parent="1">
          <mxGeometry x="355" y="510" width="120" height="60" as="geometry" />
        </mxCell>
        <mxCell id="7O1tig4I5gMi6tVbBRt3-12" style="edgeStyle=orthogonalEdgeStyle;rounded=0;orthogonalLoop=1;jettySize=auto;html=1;entryX=0.5;entryY=0;entryDx=0;entryDy=0;" edge="1" parent="1" source="7O1tig4I5gMi6tVbBRt3-14" target="7O1tig4I5gMi6tVbBRt3-16">
          <mxGeometry relative="1" as="geometry" />
        </mxCell>
        <mxCell id="7O1tig4I5gMi6tVbBRt3-31" style="edgeStyle=orthogonalEdgeStyle;rounded=0;orthogonalLoop=1;jettySize=auto;html=1;entryX=0.5;entryY=0;entryDx=0;entryDy=0;" edge="1" parent="1" source="7O1tig4I5gMi6tVbBRt3-14" target="7O1tig4I5gMi6tVbBRt3-30">
          <mxGeometry relative="1" as="geometry" />
        </mxCell>
        <mxCell id="7O1tig4I5gMi6tVbBRt3-14" value="&lt;font style=&quot;font-size: 14px;&quot;&gt;是否发生版本回退&lt;/font&gt;" style="rhombus;whiteSpace=wrap;html=1;" vertex="1" parent="1">
          <mxGeometry x="355" y="610" width="120" height="80" as="geometry" />
        </mxCell>
        <mxCell id="7O1tig4I5gMi6tVbBRt3-29" style="edgeStyle=orthogonalEdgeStyle;rounded=0;orthogonalLoop=1;jettySize=auto;html=1;entryX=0.5;entryY=0;entryDx=0;entryDy=0;" edge="1" parent="1" source="7O1tig4I5gMi6tVbBRt3-16">
          <mxGeometry relative="1" as="geometry">
            <mxPoint x="414.0000000000002" y="820" as="targetPoint" />
          </mxGeometry>
        </mxCell>
        <mxCell id="7O1tig4I5gMi6tVbBRt3-16" value="&lt;span style=&quot;font-size: 16px;&quot;&gt;存储新版本&lt;/span&gt;" style="rounded=0;whiteSpace=wrap;html=1;" vertex="1" parent="1">
          <mxGeometry x="355" y="720" width="120" height="60" as="geometry" />
        </mxCell>
        <mxCell id="7O1tig4I5gMi6tVbBRt3-20" value="否" style="text;html=1;align=center;verticalAlign=middle;resizable=0;points=[];autosize=1;strokeColor=none;fillColor=none;" vertex="1" parent="1">
          <mxGeometry x="415" y="688" width="40" height="30" as="geometry" />
        </mxCell>
        <mxCell id="7O1tig4I5gMi6tVbBRt3-23" value="是" style="text;html=1;align=center;verticalAlign=middle;resizable=0;points=[];autosize=1;strokeColor=none;fillColor=none;" vertex="1" parent="1">
          <mxGeometry x="490" y="620" width="40" height="30" as="geometry" />
        </mxCell>
        <mxCell id="7O1tig4I5gMi6tVbBRt3-24" value="&lt;font style=&quot;font-size: 16px;&quot;&gt;取出服务版本&lt;/font&gt;" style="rounded=0;whiteSpace=wrap;html=1;" vertex="1" parent="1">
          <mxGeometry x="354" y="420" width="120" height="60" as="geometry" />
        </mxCell>
        <mxCell id="7O1tig4I5gMi6tVbBRt3-36" style="edgeStyle=orthogonalEdgeStyle;rounded=0;orthogonalLoop=1;jettySize=auto;html=1;entryX=1;entryY=0.5;entryDx=0;entryDy=0;" edge="1" parent="1" source="7O1tig4I5gMi6tVbBRt3-30">
          <mxGeometry relative="1" as="geometry">
            <mxPoint x="475" y="950" as="targetPoint" />
            <Array as="points">
              <mxPoint x="590" y="950" />
            </Array>
          </mxGeometry>
        </mxCell>
        <mxCell id="7O1tig4I5gMi6tVbBRt3-30" value="&lt;span style=&quot;font-size: 16px;&quot;&gt;构造版本回退消息&lt;/span&gt;" style="rounded=0;whiteSpace=wrap;html=1;" vertex="1" parent="1">
          <mxGeometry x="530" y="718" width="120" height="60" as="geometry" />
        </mxCell>
        <mxCell id="7O1tig4I5gMi6tVbBRt3-35" style="edgeStyle=orthogonalEdgeStyle;rounded=0;orthogonalLoop=1;jettySize=auto;html=1;entryX=0.5;entryY=0;entryDx=0;entryDy=0;" edge="1" parent="1" source="7O1tig4I5gMi6tVbBRt3-33">
          <mxGeometry relative="1" as="geometry">
            <mxPoint x="415" y="920" as="targetPoint" />
          </mxGeometry>
        </mxCell>
        <mxCell id="7O1tig4I5gMi6tVbBRt3-33" value="&lt;span style=&quot;color: rgb(0, 0, 0); font-family: Helvetica; font-size: 16px; font-style: normal; font-variant-ligatures: normal; font-variant-caps: normal; font-weight: 400; letter-spacing: normal; orphans: 2; text-align: center; text-indent: 0px; text-transform: none; widows: 2; word-spacing: 0px; -webkit-text-stroke-width: 0px; background-color: rgb(251, 251, 251); text-decoration-thickness: initial; text-decoration-style: initial; text-decoration-color: initial; float: none; display: inline !important;&quot;&gt;构造版本升级消息&lt;/span&gt;" style="rounded=0;whiteSpace=wrap;html=1;" vertex="1" parent="1">
          <mxGeometry x="355" y="820" width="120" height="60" as="geometry" />
        </mxCell>
        <mxCell id="7O1tig4I5gMi6tVbBRt3-39" style="edgeStyle=orthogonalEdgeStyle;rounded=0;orthogonalLoop=1;jettySize=auto;html=1;" edge="1" parent="1" source="7O1tig4I5gMi6tVbBRt3-37" target="7O1tig4I5gMi6tVbBRt3-38">
          <mxGeometry relative="1" as="geometry" />
        </mxCell>
        <mxCell id="7O1tig4I5gMi6tVbBRt3-37" value="&lt;font style=&quot;font-size: 16px;&quot;&gt;发送告警&lt;/font&gt;" style="rounded=0;whiteSpace=wrap;html=1;" vertex="1" parent="1">
          <mxGeometry x="354" y="920" width="120" height="60" as="geometry" />
        </mxCell>
        <mxCell id="7O1tig4I5gMi6tVbBRt3-38" value="&lt;font style=&quot;font-size: 16px;&quot;&gt;结束&lt;/font&gt;" style="rounded=1;whiteSpace=wrap;html=1;" vertex="1" parent="1">
          <mxGeometry x="354" y="1020" width="120" height="60" as="geometry" />
        </mxCell>
      </root>
    </mxGraphModel>
  </diagram>
</mxfile>
